<svg width="482" height="100" viewBox="0 0 482 100" fill="none" xmlns="http://www.w3.org/2000/svg">
<path fill-rule="evenodd" clip-rule="evenodd" d="M0 40V60H20V80H0V100H20V80H40V60H60V40H40V20H60V0H40V20H20V40H0ZM20 40H40V60H20V40Z" fill="black"/>
<path d="M125.594 48.2692L118.178 48.7308C118.051 48.0897 117.779 47.5128 117.361 47C116.942 46.4744 116.391 46.0577 115.706 45.75C115.034 45.4295 114.229 45.2692 113.291 45.2692C112.036 45.2692 110.978 45.5385 110.116 46.0769C109.254 46.6026 108.823 47.3077 108.823 48.1923C108.823 48.8974 109.102 49.4936 109.66 49.9808C110.217 50.4679 111.174 50.859 112.531 51.1538L117.817 52.2308C120.657 52.8205 122.774 53.7692 124.168 55.0769C125.562 56.3846 126.26 58.1026 126.26 60.2308C126.26 62.1667 125.695 63.8654 124.567 65.3269C123.452 66.7885 121.918 67.9295 119.966 68.75C118.026 69.5577 115.789 69.9615 113.253 69.9615C109.387 69.9615 106.307 69.1474 104.012 67.5192C101.73 65.8782 100.393 63.6474 100 60.8269L107.967 60.4038C108.208 61.5962 108.791 62.5064 109.717 63.1346C110.642 63.75 111.827 64.0577 113.272 64.0577C114.692 64.0577 115.833 63.782 116.695 63.2308C117.57 62.6667 118.013 61.9423 118.026 61.0577C118.013 60.3141 117.703 59.7051 117.094 59.2308C116.486 58.7436 115.548 58.3718 114.28 58.1154L109.222 57.0962C106.37 56.5192 104.247 55.5192 102.852 54.0962C101.47 52.6731 100.78 50.859 100.78 48.6538C100.78 46.7564 101.287 45.1218 102.301 43.75C103.328 42.3782 104.766 41.3205 106.617 40.5769C108.481 39.8333 110.661 39.4615 113.158 39.4615C116.847 39.4615 119.75 40.25 121.867 41.8269C123.997 43.4038 125.239 45.5513 125.594 48.2692Z" fill="black"/>
<path d="M146.896 39.8462V46H129.307V39.8462H146.896ZM133.3 32.7692H141.4V60.3077C141.4 61.0641 141.514 61.6538 141.742 62.0769C141.971 62.4872 142.288 62.7756 142.693 62.9423C143.112 63.109 143.593 63.1923 144.138 63.1923C144.519 63.1923 144.899 63.1603 145.279 63.0962C145.66 63.0192 145.951 62.9615 146.154 62.9231L147.428 69.0192C147.022 69.1474 146.452 69.2949 145.717 69.4615C144.981 69.641 144.088 69.75 143.035 69.7885C141.083 69.8654 139.372 69.6026 137.901 69C136.444 68.3974 135.309 67.4615 134.498 66.1923C133.686 64.9231 133.287 63.3205 133.3 61.3846V32.7692Z" fill="black"/>
<path d="M152.172 69.3846V39.8462H160.025V45H160.33C160.862 43.1667 161.756 41.782 163.011 40.8462C164.266 39.8974 165.711 39.4231 167.346 39.4231C167.752 39.4231 168.189 39.4487 168.658 39.5C169.127 39.5513 169.539 39.6218 169.894 39.7115V46.9808C169.514 46.8654 168.988 46.7628 168.316 46.6731C167.644 46.5833 167.029 46.5385 166.471 46.5385C165.28 46.5385 164.215 46.8013 163.277 47.3269C162.351 47.8397 161.616 48.5577 161.071 49.4808C160.539 50.4038 160.273 51.4679 160.273 52.6731V69.3846H152.172Z" fill="black"/>
<path d="M192.812 56.8077V39.8462H200.912V69.3846H193.135V64.0192H192.831C192.172 65.75 191.075 67.141 189.541 68.1923C188.02 69.2436 186.163 69.7692 183.97 69.7692C182.018 69.7692 180.3 69.3205 178.817 68.4231C177.334 67.5256 176.174 66.25 175.337 64.5962C174.513 62.9423 174.095 60.9615 174.082 58.6538V39.8462H182.182V57.1923C182.195 58.9359 182.658 60.3141 183.571 61.3269C184.483 62.3397 185.707 62.8462 187.24 62.8462C188.216 62.8462 189.129 62.6218 189.979 62.1731C190.828 61.7115 191.512 61.032 192.032 60.1346C192.565 59.2372 192.824 58.1282 192.812 56.8077Z" fill="black"/>
<path d="M220.588 69.9615C217.596 69.9615 215.023 69.3205 212.868 68.0385C210.725 66.7436 209.077 64.9487 207.924 62.6538C206.783 60.359 206.213 57.7179 206.213 54.7308C206.213 51.7051 206.789 49.0513 207.943 46.7692C209.109 44.4744 210.763 42.6859 212.906 41.4038C215.048 40.109 217.596 39.4615 220.55 39.4615C223.098 39.4615 225.329 39.9295 227.243 40.8654C229.157 41.8013 230.672 43.1154 231.788 44.8077C232.903 46.5 233.518 48.4872 233.632 50.7692H225.988C225.773 49.2949 225.202 48.109 224.277 47.2115C223.364 46.3013 222.166 45.8462 220.683 45.8462C219.428 45.8462 218.331 46.1923 217.393 46.8846C216.468 47.5641 215.745 48.5577 215.226 49.8654C214.706 51.1731 214.446 52.7564 214.446 54.6154C214.446 56.5 214.7 58.1026 215.207 59.4231C215.726 60.7436 216.455 61.75 217.393 62.4423C218.331 63.1346 219.428 63.4808 220.683 63.4808C221.608 63.4808 222.439 63.2885 223.174 62.9038C223.922 62.5192 224.537 61.9615 225.018 61.2308C225.513 60.4872 225.836 59.5962 225.988 58.5577H233.632C233.505 60.8141 232.897 62.8013 231.807 64.5192C230.729 66.2244 229.24 67.5577 227.338 68.5192C225.437 69.4808 223.186 69.9615 220.588 69.9615Z" fill="black"/>
<path d="M254.354 39.8462V46H236.765V39.8462H254.354ZM240.758 32.7692H248.858V60.3077C248.858 61.0641 248.972 61.6538 249.2 62.0769C249.429 62.4872 249.746 62.7756 250.151 62.9423C250.57 63.109 251.051 63.1923 251.596 63.1923C251.977 63.1923 252.357 63.1603 252.737 63.0962C253.118 63.0192 253.409 62.9615 253.612 62.9231L254.886 69.0192C254.48 69.1474 253.91 69.2949 253.175 69.4615C252.439 69.641 251.546 69.75 250.493 69.7885C248.541 69.8654 246.83 69.6026 245.359 69C243.902 68.3974 242.767 67.4615 241.956 66.1923C241.144 64.9231 240.745 63.3205 240.758 61.3846V32.7692Z" fill="black"/>
<path d="M278.36 56.8077V39.8462H286.46V69.3846H278.683V64.0192H278.379C277.72 65.75 276.623 67.141 275.089 68.1923C273.568 69.2436 271.711 69.7692 269.518 69.7692C267.566 69.7692 265.848 69.3205 264.365 68.4231C262.882 67.5256 261.722 66.25 260.885 64.5962C260.061 62.9423 259.643 60.9615 259.63 58.6538V39.8462H267.73V57.1923C267.743 58.9359 268.206 60.3141 269.119 61.3269C270.031 62.3397 271.255 62.8462 272.788 62.8462C273.765 62.8462 274.677 62.6218 275.527 62.1731C276.376 61.7115 277.06 61.032 277.58 60.1346C278.113 59.2372 278.373 58.1282 278.36 56.8077Z" fill="black"/>
<path d="M292.94 69.3846V39.8462H300.793V45H301.097C301.629 43.1667 302.523 41.782 303.778 40.8462C305.033 39.8974 306.478 39.4231 308.113 39.4231C308.519 39.4231 308.956 39.4487 309.425 39.5C309.894 39.5513 310.306 39.6218 310.661 39.7115V46.9808C310.281 46.8654 309.755 46.7628 309.083 46.6731C308.411 46.5833 307.797 46.5385 307.239 46.5385C306.047 46.5385 304.982 46.8013 304.044 47.3269C303.119 47.8397 302.384 48.5577 301.839 49.4808C301.306 50.4038 301.04 51.4679 301.04 52.6731V69.3846H292.94Z" fill="black"/>
<path d="M326.8 69.9615C323.796 69.9615 321.21 69.3462 319.042 68.1154C316.887 66.8718 315.227 65.1154 314.06 62.8462C312.894 60.5641 312.311 57.8654 312.311 54.75C312.311 51.7115 312.894 49.0449 314.06 46.75C315.227 44.4551 316.868 42.6667 318.985 41.3846C321.115 40.1026 323.612 39.4615 326.477 39.4615C328.404 39.4615 330.198 39.7756 331.858 40.4038C333.532 41.0192 334.989 41.9487 336.232 43.1923C337.487 44.4359 338.463 46 339.16 47.8846C339.857 49.7564 340.206 51.9487 340.206 54.4615V56.7115H315.543V51.6346H332.581C332.581 50.4551 332.327 49.4103 331.82 48.5C331.313 47.5897 330.61 46.8782 329.71 46.3654C328.822 45.8397 327.789 45.5769 326.61 45.5769C325.381 45.5769 324.29 45.8654 323.34 46.4423C322.402 47.0064 321.666 47.7692 321.134 48.7308C320.601 49.6795 320.329 50.7372 320.316 51.9038V56.7308C320.316 58.1923 320.582 59.4551 321.115 60.5192C321.66 61.5833 322.427 62.4038 323.416 62.9808C324.404 63.5577 325.577 63.8462 326.933 63.8462C327.833 63.8462 328.657 63.7179 329.405 63.4615C330.153 63.2051 330.793 62.8205 331.326 62.3077C331.858 61.7949 332.264 61.1667 332.543 60.4231L340.035 60.9231C339.654 62.7436 338.875 64.3333 337.696 65.6923C336.53 67.0385 335.021 68.0897 333.17 68.8462C331.332 69.5897 329.209 69.9615 326.8 69.9615Z" fill="black"/>
<path d="M356.254 69.8654C354.036 69.8654 352.027 69.2885 350.227 68.1346C348.439 66.9679 347.019 65.2564 345.967 63C344.928 60.7308 344.408 57.9487 344.408 54.6538C344.408 51.2692 344.947 48.4551 346.024 46.2115C347.102 43.9551 348.534 42.2692 350.322 41.1538C352.122 40.0256 354.093 39.4615 356.235 39.4615C357.871 39.4615 359.233 39.7436 360.324 40.3077C361.426 40.859 362.314 41.5513 362.986 42.3846C363.67 43.2051 364.19 44.0128 364.545 44.8077H364.792V30H372.873V69.3846H364.887V64.6538H364.545C364.165 65.4744 363.626 66.2885 362.929 67.0962C362.244 67.891 361.35 68.5513 360.248 69.0769C359.157 69.6026 357.826 69.8654 356.254 69.8654ZM358.821 63.3462C360.127 63.3462 361.23 62.9872 362.13 62.2692C363.043 61.5385 363.74 60.5192 364.222 59.2115C364.716 57.9038 364.963 56.3718 364.963 54.6154C364.963 52.859 364.722 51.3333 364.241 50.0385C363.759 48.7436 363.062 47.7436 362.149 47.0385C361.236 46.3333 360.127 45.9808 358.821 45.9808C357.49 45.9808 356.368 46.3462 355.456 47.0769C354.543 47.8077 353.852 48.8205 353.383 50.1154C352.914 51.4103 352.68 52.9103 352.68 54.6154C352.68 56.3333 352.914 57.8526 353.383 59.1731C353.865 60.4808 354.556 61.5064 355.456 62.25C356.368 62.9808 357.49 63.3462 358.821 63.3462Z" fill="black"/>
<path d="M380.408 30H384.896V61.6923C384.896 63.1282 385.054 64.1346 385.371 64.7115C385.688 65.2885 386.341 65.5641 387.33 65.5385C387.862 65.5128 388.255 65.4744 388.508 65.4231C388.775 65.359 389.015 65.2949 389.231 65.2308L390.144 69.1538C389.751 69.2692 389.256 69.3718 388.661 69.4615C388.065 69.5641 387.444 69.6154 386.797 69.6154C384.667 69.6154 383.07 69.0256 382.005 67.8462C380.941 66.6667 380.408 65.0256 380.408 62.9231V30Z" fill="black"/>
<path d="M405.294 70C402.86 70 400.711 69.3782 398.848 68.1346C396.984 66.8782 395.527 65.109 394.474 62.8269C393.422 60.5321 392.896 57.8205 392.896 54.6923C392.896 51.5897 393.422 48.8974 394.474 46.6154C395.527 44.3333 396.991 42.5705 398.867 41.3269C400.743 40.0833 402.911 39.4615 405.37 39.4615C407.271 39.4615 408.774 39.7821 409.876 40.4231C410.992 41.0513 411.841 41.7692 412.424 42.5769C413.02 43.3718 413.483 44.0256 413.813 44.5385H414.193V39.8462H418.68V69.3846H414.345V64.8462H413.813C413.483 65.3846 413.014 66.0641 412.405 66.8846C411.797 67.6923 410.929 68.4167 409.8 69.0577C408.672 69.6859 407.17 70 405.294 70ZM405.902 65.9231C407.702 65.9231 409.224 65.4487 410.466 64.5C411.708 63.5385 412.653 62.2115 413.299 60.5192C413.946 58.8141 414.269 56.8462 414.269 54.6154C414.269 52.4103 413.952 50.4808 413.318 48.8269C412.684 47.1603 411.746 45.8654 410.504 44.9423C409.262 44.0064 407.728 43.5385 405.902 43.5385C404.001 43.5385 402.416 44.0321 401.149 45.0192C399.894 45.9936 398.949 47.3205 398.315 49C397.694 50.6667 397.384 52.5385 397.384 54.6154C397.384 56.7179 397.701 58.6282 398.334 60.3462C398.981 62.0513 399.932 63.4103 401.187 64.4231C402.454 65.4231 404.026 65.9231 405.902 65.9231Z" fill="black"/>
<path d="M428.131 69.3846V30H432.618V44.5385H432.999C433.328 44.0256 433.785 43.3718 434.368 42.5769C434.963 41.7692 435.813 41.0513 436.916 40.4231C438.031 39.7821 439.54 39.4615 441.441 39.4615C443.9 39.4615 446.068 40.0833 447.944 41.3269C449.82 42.5705 451.285 44.3333 452.337 46.6154C453.389 48.8974 453.915 51.5897 453.915 54.6923C453.915 57.8205 453.389 60.5321 452.337 62.8269C451.285 65.109 449.827 66.8782 447.963 68.1346C446.1 69.3782 443.951 70 441.517 70C439.641 70 438.139 69.6859 437.011 69.0577C435.882 68.4167 435.014 67.6923 434.406 66.8846C433.797 66.0641 433.328 65.3846 432.999 64.8462H432.466V69.3846H428.131ZM432.542 54.6154C432.542 56.8462 432.865 58.8141 433.512 60.5192C434.158 62.2115 435.103 63.5385 436.345 64.5C437.587 65.4487 439.109 65.9231 440.909 65.9231C442.785 65.9231 444.35 65.4231 445.605 64.4231C446.873 63.4103 447.824 62.0513 448.458 60.3462C449.104 58.6282 449.427 56.7179 449.427 54.6154C449.427 52.5385 449.111 50.6667 448.477 49C447.856 47.3205 446.911 45.9936 445.643 45.0192C444.388 44.0321 442.81 43.5385 440.909 43.5385C439.083 43.5385 437.549 44.0064 436.307 44.9423C435.065 45.8654 434.127 47.1603 433.493 48.8269C432.859 50.4808 432.542 52.4103 432.542 54.6154Z" fill="black"/>
<path d="M481.468 46.4615L477.436 47.6154C477.183 46.9359 476.809 46.2756 476.315 45.6346C475.833 44.9808 475.174 44.4423 474.337 44.0192C473.5 43.5962 472.429 43.3846 471.123 43.3846C469.336 43.3846 467.847 43.8013 466.655 44.6346C465.476 45.4551 464.887 46.5 464.887 47.7692C464.887 48.8974 465.292 49.7885 466.104 50.4423C466.915 51.0962 468.182 51.641 469.906 52.0769L474.242 53.1538C476.853 53.7949 478.799 54.7756 480.079 56.0962C481.36 57.4038 482 59.0897 482 61.1538C482 62.8462 481.518 64.359 480.555 65.6923C479.604 67.0256 478.273 68.0769 476.562 68.8462C474.85 69.6154 472.86 70 470.591 70C467.612 70 465.146 69.3462 463.194 68.0385C461.242 66.7308 460.006 64.8205 459.486 62.3077L463.746 61.2308C464.151 62.8205 464.918 64.0128 466.046 64.8077C467.187 65.6026 468.677 66 470.515 66C472.607 66 474.267 65.5513 475.497 64.6538C476.739 63.7436 477.36 62.6538 477.36 61.3846C477.36 60.359 477.005 59.5 476.296 58.8077C475.586 58.1026 474.495 57.5769 473.025 57.2308L468.157 56.0769C465.482 55.4359 463.517 54.4423 462.263 53.0962C461.02 51.7372 460.399 50.0385 460.399 48C460.399 46.3333 460.862 44.859 461.787 43.5769C462.725 42.2949 463.999 41.2885 465.609 40.5577C467.232 39.8269 469.07 39.4615 471.123 39.4615C474.014 39.4615 476.283 40.1026 477.931 41.3846C479.591 42.6667 480.77 44.359 481.468 46.4615Z" fill="black"/>
</svg>
